<?xml version="1.0" encoding="utf-8"?>
<!-- Generator: Adobe Illustrator 22.0.1, SVG Export Plug-In . SVG Version: 6.00 Build 0)  -->
<svg version="1.1" id="圖層_1" xmlns="http://www.w3.org/2000/svg" xmlns:xlink="http://www.w3.org/1999/xlink" x="0px" y="0px"
	 width="80px" height="80px" viewBox="0 0 80 80" style="enable-background:new 0 0 80 80;" xml:space="preserve">
<style type="text/css">
	.st0{fill:url(#SVGID_1_);}
	.st1{fill:url(#SVGID_2_);}
	.st2{fill:url(#SVGID_3_);}
</style>
<g>
	
		<linearGradient id="SVGID_1_" gradientUnits="userSpaceOnUse" x1="57.144" y1="41.4082" x2="57.144" y2="77.2702" gradientTransform="matrix(1 0 0 -1 0 82)">
		<stop  offset="0" style="stop-color:#57ACF9"/>
		<stop  offset="1" style="stop-color:#298AE2"/>
	</linearGradient>
	<path class="st0" d="M74.9,35.8c0.1,2,0.4,4.5-2.4,4.6c-3,0.3-2.7-2.3-3-4.2c-1.8-15.5-11.3-24.6-26.8-26.2c-2-0.1-3.7-0.6-3.5-3
		s2-2.5,3.9-2.5C59.7,5,74.4,19.5,74.9,35.8z"/>
	
		<linearGradient id="SVGID_2_" gradientUnits="userSpaceOnUse" x1="49.9128" y1="62.3827" x2="49.9128" y2="41.3862" gradientTransform="matrix(1 0 0 -1 0 82)">
		<stop  offset="0" style="stop-color:#57ACF9"/>
		<stop  offset="1" style="stop-color:#298AE2"/>
	</linearGradient>
	<path class="st1" d="M43.5,19.7c8.7,0.4,16.6,8.3,16.9,16.9c0.1,2-0.1,3.7-2.4,3.9c-2.3,0.3-2.8-1.4-3.1-3.4
		c-1.3-7.6-4.6-11.3-12-12.4c-2-0.3-3.9-0.6-3.5-3.2C39.7,19.4,41.7,19.7,43.5,19.7z"/>
	<linearGradient id="SVGID_3_" gradientUnits="userSpaceOnUse" x1="35.1117" y1="75.1295" x2="35.1117" y2="14.8965">
		<stop  offset="0" style="stop-color:#57ACF9"/>
		<stop  offset="1" style="stop-color:#298AE2"/>
	</linearGradient>
	<path class="st2" d="M59.7,54.2c-0.6-0.6-1.1-1.1-1.7-1.7c-6.2-6.2-8.2-6.3-14.6-0.3c-1.5,1.4-2.5,1.3-4.1,0.3
		c-3.8-2.5-6.9-5.9-10-9.3c-2.7-3-3.4-5.1,0.1-8.2c3.9-3.5,3.7-7.2,0.1-10.8c-2.4-2.4-4.8-4.8-7.2-7c-2-2-4.5-2.5-7-1.5
		c-6.5,2.3-11.8,11.1-10,17.9c4.9,18.6,17,31.1,34.2,39.3c3.4,1.5,7,2.5,11.4,2.7c5.4-0.1,11.3-4.2,13.7-10.1
		C66.8,59.8,62.7,57.2,59.7,54.2z M59.1,63.3c-1.5,4.2-7.7,7.2-12,5.9c-18.7-5.8-30.7-18.4-36.7-36.7c-0.1-0.7-0.1-1.5-0.3-2
		c-0.1-3.1,4.1-8.9,6.6-9.9c0.8-0.3,1.5,0,2.1,0.6c2.4,2.3,4.6,4.5,6.9,6.8c1,1,0.8,2.1-0.1,3.1c-1.1,1.1-2.1,2.4-3.4,3.4
		c-2,1.8-2.1,3.9-1,6.2c4.4,7.9,10.4,13.9,18.4,18c2.1,1.1,3.8,0.7,5.4-1c1-1,2.1-2,3.1-3.1c1.4-1.7,2.7-1.7,4.4-0.1l4.8,4.5
		C58.7,60.1,59.7,61.5,59.1,63.3z"/>
</g>
</svg>
