<?xml version="1.0" encoding="utf-8"?>
<!-- Generator: Adobe Illustrator 16.0.0, SVG Export Plug-In . SVG Version: 6.00 Build 0)  -->
<!DOCTYPE svg PUBLIC "-//W3C//DTD SVG 1.1//EN" "http://www.w3.org/Graphics/SVG/1.1/DTD/svg11.dtd">
<svg version="1.1" id="圖層_1" xmlns="http://www.w3.org/2000/svg" xmlns:xlink="http://www.w3.org/1999/xlink" x="0px" y="0px"
	 width="50px" height="50px" viewBox="-13 -11 50 50" enable-background="new -13 -11 50 50" xml:space="preserve">
<title>check-circle</title>
<path fill="#6AC259" d="M28.88,8.727c0-0.553-0.197-1.106-0.586-1.498l-2.962-2.93c-0.391-0.388-0.914-0.618-1.465-0.618
	c-0.554,0-1.074,0.228-1.465,0.618L9.121,17.549l-7.357-7.357c-0.39-0.39-0.912-0.619-1.465-0.619c-0.551,0-1.074,0.227-1.463,0.619
	l-2.963,2.93c-0.389,0.39-0.585,0.944-0.585,1.498c0,0.553,0.196,1.074,0.585,1.465L7.656,27.867
	c0.39,0.389,0.943,0.618,1.465,0.618c0.553,0,1.105-0.228,1.497-0.618l17.676-17.676C28.683,9.802,28.88,9.279,28.88,8.727z
	 M37.083,14c0,13.802-11.198,25-25,25c-13.802,0-25-11.198-25-25c0-13.802,11.198-25,25-25C25.885-11,37.083,0.198,37.083,14z"/>
</svg>
