<?xml version="1.0" encoding="utf-8"?>
<!-- Generator: Adobe Illustrator 22.0.1, SVG Export Plug-In . SVG Version: 6.00 Build 0)  -->
<svg version="1.1" id="圖層_1" xmlns="http://www.w3.org/2000/svg" xmlns:xlink="http://www.w3.org/1999/xlink" x="0px" y="0px"
	 width="80px" height="80px" viewBox="0 0 80 80" style="enable-background:new 0 0 80 80;" xml:space="preserve">
<style type="text/css">
	.st0{fill:url(#SVGID_1_);}
	.st1{fill:url(#SVGID_2_);}
	.st2{fill:url(#SVGID_3_);}
	.st3{fill:url(#SVGID_4_);}
</style>
<g>
	
		<linearGradient id="SVGID_1_" gradientUnits="userSpaceOnUse" x1="39.8499" y1="67.5337" x2="39.8499" y2="37.9793" gradientTransform="matrix(1 0 0 -1 0 82)">
		<stop  offset="0" style="stop-color:#57ACF9"/>
		<stop  offset="1" style="stop-color:#298AE2"/>
	</linearGradient>
	<path class="st0" d="M5.8,15c0-0.2,0-0.3,0.2-0.5c0.3-0.3,0.5-0.2,1.2-0.2h65.7c0.6,0,1.1,0.2,1.1,0.5c-0.2,0.2-0.2,0.2-0.3,0.3
		C64.3,24,55,32.7,45.6,41.5c-3.5,3.3-7.7,3.2-11.3,0L5.8,15z"/>
	
		<linearGradient id="SVGID_2_" gradientUnits="userSpaceOnUse" x1="40.1501" y1="36.4943" x2="40.1501" y2="16.3825" gradientTransform="matrix(1 0 0 -1 0 82)">
		<stop  offset="0" style="stop-color:#57ACF9"/>
		<stop  offset="1" style="stop-color:#298AE2"/>
	</linearGradient>
	<path class="st1" d="M7.1,65.7c-0.6,0-0.9,0-1.5-0.5c8.9-6.6,17.9-13.2,26.6-19.7c5.3,3.8,10.5,3.8,15.6,0
		c8.7,6.5,18,13.1,26.9,19.7c-0.3,0.5-0.8,0.5-1.8,0.5H7.1z"/>
	
		<linearGradient id="SVGID_3_" gradientUnits="userSpaceOnUse" x1="63.864" y1="64.1942" x2="63.864" y2="18.8216" gradientTransform="matrix(1 0 0 -1 0 82)">
		<stop  offset="0" style="stop-color:#57ACF9"/>
		<stop  offset="1" style="stop-color:#298AE2"/>
	</linearGradient>
	<path class="st2" d="M50.2,43.2c9-8.6,17.9-16.8,27-25.4c0.3,0.8,0.3,2,0.3,2.7c0,13.1,0,26.1,0,39.2c0,1.1,0,2.9-0.6,3.5
		C67.9,56.4,59.1,49.9,50.2,43.2z"/>
	
		<linearGradient id="SVGID_4_" gradientUnits="userSpaceOnUse" x1="16.136" y1="64.4944" x2="16.136" y2="18.9544" gradientTransform="matrix(1 0 0 -1 0 82)">
		<stop  offset="0" style="stop-color:#57ACF9"/>
		<stop  offset="1" style="stop-color:#298AE2"/>
	</linearGradient>
	<path class="st3" d="M2.5,18.3c0-0.2,0-0.3,0-0.6l0.2-0.2c8.7,8.3,18.3,17.4,27.2,25.8C20.9,49.9,12.1,56.5,3.4,63l0,0
		c-0.9-1.1-0.9-2.3-0.9-3.5c0-6,0-12.2,0-18.2c0-6.8,0-13.7,0-20.4C2.5,20.1,2.5,18.9,2.5,18.3L2.5,18.3z"/>
</g>
</svg>
