<?xml version="1.0" encoding="utf-8"?>
<!-- Generator: Adobe Illustrator 22.0.1, SVG Export Plug-In . SVG Version: 6.00 Build 0)  -->
<svg version="1.1" id="圖層_1" xmlns="http://www.w3.org/2000/svg" xmlns:xlink="http://www.w3.org/1999/xlink" x="0px" y="0px"
	 width="80px" height="80px" viewBox="0 0 80 80" style="enable-background:new 0 0 80 80;" xml:space="preserve">
<style type="text/css">
	.st0{fill:url(#SVGID_1_);}
	.st1{fill:url(#SVGID_2_);}
	.st2{fill:url(#SVGID_3_);}
	.st3{fill:url(#SVGID_4_);}
	.st4{fill:url(#SVGID_5_);}
</style>
<g>
	
		<linearGradient id="SVGID_1_" gradientUnits="userSpaceOnUse" x1="40" y1="717.1869" x2="40" y2="737.4724" gradientTransform="matrix(1 0 0 1 0 -712)">
		<stop  offset="0.6244" style="stop-color:#57ACF9"/>
		<stop  offset="1" style="stop-color:#298AE2"/>
	</linearGradient>
	<path class="st0" d="M75,25.6c-5.5-1.7-11-3.2-16.5-4.7c-0.7-0.2-0.8-0.5-0.7-1.1c0.3-1.4-0.6-2.1-1.8-2.4
		c-9.3-1.9-18.9-3.1-28.4-0.5c-1.4,0.5-3,0.7-3.2,2.5c-0.2,0.8-0.7,0.7-1.3,0.8c-5.5,1.6-11.2,3-16.7,4.4c-1,0.3-1.4,0-1.3-1
		c0-0.2,0-0.5,0-0.6c-0.2-4.9,1.7-8.2,6.5-10.6c20.3-10.3,40-9.2,59.7,1.7c2.8,1.6,3.2,4.2,3.6,6.7C75.1,22.2,75,23.7,75,25.6z"/>
	
		<linearGradient id="SVGID_2_" gradientUnits="userSpaceOnUse" x1="15.8813" y1="734.3438" x2="15.8813" y2="744.3381" gradientTransform="matrix(1 0 0 1 0 -712)">
		<stop  offset="0" style="stop-color:#57ACF9"/>
		<stop  offset="1" style="stop-color:#298AE2"/>
	</linearGradient>
	<path class="st1" d="M9.2,32.4c-1.9,0-4.1-3-3.5-4.6c0.2-0.5,0.6-0.6,1-0.6c5.8-1.6,11.7-3.1,17.6-4.7c0.8-0.3,1.1,0,1.4,0.8
		c1.1,3.2,0.7,4.3-2.5,5.5c-4.3,1.6-8.7,2.4-13.1,3.5C9.5,32.2,9.3,32.4,9.2,32.4z"/>
	
		<linearGradient id="SVGID_3_" gradientUnits="userSpaceOnUse" x1="65.2589" y1="735.1194" x2="65.2589" y2="745.0402" gradientTransform="matrix(1 0 0 1 0 -712)">
		<stop  offset="0" style="stop-color:#57ACF9"/>
		<stop  offset="1" style="stop-color:#298AE2"/>
	</linearGradient>
	<path class="st2" d="M71.2,33.1c-2.8-0.5-5.7-1.3-8.7-2.2c-1.4-0.5-2.8-0.8-4.2-1.3c-2.1-0.7-2.7-1.6-2.2-3.8
		c0.6-3.1,0.6-3.1,3.5-2.2c4.4,1.3,9.1,2.7,13.5,4c1.4,0.5,1.6,1,1.3,2.2C73.6,32.4,73.1,33.1,71.2,33.1z"/>
	
		<linearGradient id="SVGID_4_" gradientUnits="userSpaceOnUse" x1="40.7851" y1="730.7338" x2="40.7851" y2="787.0692" gradientTransform="matrix(1 0 0 1 0 -712)">
		<stop  offset="0" style="stop-color:#57ACF9"/>
		<stop  offset="1" style="stop-color:#298AE2"/>
	</linearGradient>
	<path class="st3" d="M67.7,51.4c-1.7-7.7-4.6-15-11.7-19c-3.6-1.9-4.6-4.3-4.3-8.1c0.3-2.7-0.6-3.6-3.1-4.4
		c-5.5-1.8-10.9-1.7-16.4,0.3c-1.9,0.7-3.1,1.9-3,4.2c0.2,1.1-0.2,2.2,0,3.3c0.2,1.6-0.5,2.4-1.8,3.1c-5.8,2.7-9.5,7.3-11.8,13.1
		c-2.7,6.8-3.3,14-3.3,21.3c0,1.3,0.6,2.1,1.6,2.8c1,0.7,1.9,1.1,3.2,1.1c1.3,0.2,1.8,0.6,1.8,1.9c0.2,2.2,2.1,3.9,4.3,3.9
		c2.5-0.2,3.8-1.7,4.4-3.9c0.3-1,0.7-1.4,1.8-1.4c7.6,0,15.1,0,22.6,0c1.1,0,1.6,0.5,1.8,1.4c1.1,2.8,2.7,4.1,4.9,3.9
		c2.1-0.2,3.9-1.6,4.1-3.8c0.2-1.7,1-1.8,2.2-2.1c3.2-0.6,4.2-1.9,4.2-5.3C69,59.8,68.7,55.5,67.7,51.4z M56.5,53.3
		c-0.3,0.8-0.3,1.6-1.7,1c-1.8-1-3.5-0.5-4.2,0.8c-0.7,1.3-0.2,3,1.6,4.1c0.3,0.2,0.6,0.5,0.7,0.6c-4.1,4.9-10.9,6.8-17.2,4.9
		c-6.3-1.9-11-7.6-11.6-14.1c-0.7-6.7,2.8-13.1,8.7-16.4c5.8-3.1,13.1-2.5,18.1,1.8C56.1,40.2,58.3,47,56.5,53.3z"/>
	
		<linearGradient id="SVGID_5_" gradientUnits="userSpaceOnUse" x1="40.6003" y1="752.0677" x2="40.6003" y2="769.6299" gradientTransform="matrix(1 0 0 1 0 -712)">
		<stop  offset="0" style="stop-color:#57ACF9"/>
		<stop  offset="1" style="stop-color:#298AE2"/>
	</linearGradient>
	<path class="st4" d="M40.6,57.7c-4.9,0-8.8-3.9-8.8-8.8c0-4.7,4.1-8.8,8.8-8.8s8.8,3.9,8.8,8.8S45.5,57.7,40.6,57.7z"/>
</g>
</svg>
